<mxfile host="app.diagrams.net" modified="2022-02-22T23:55:43.569Z" agent="5.0 (Windows NT 10.0; Win64; x64) AppleWebKit/537.36 (KHTML, like Gecko) Chrome/98.0.4758.102 Safari/537.36" etag="-bCyCIU1Tpvg57Qk68M_" version="16.6.2" type="github">
  <diagram id="-rjmX6XfsF4pqG2Ei-Bn" name="Page-1">
    <mxGraphModel dx="782" dy="387" grid="1" gridSize="10" guides="1" tooltips="1" connect="1" arrows="1" fold="1" page="1" pageScale="1" pageWidth="827" pageHeight="1169" math="0" shadow="0">
      <root>
        <mxCell id="0" />
        <mxCell id="1" parent="0" />
        <mxCell id="jh_wpFelPdrl3bym8iCk-3" value="" style="edgeStyle=orthogonalEdgeStyle;rounded=0;orthogonalLoop=1;jettySize=auto;html=1;" edge="1" parent="1" source="jh_wpFelPdrl3bym8iCk-1" target="jh_wpFelPdrl3bym8iCk-2">
          <mxGeometry relative="1" as="geometry" />
        </mxCell>
        <mxCell id="jh_wpFelPdrl3bym8iCk-1" value="Attach the machine to the rim" style="rounded=0;whiteSpace=wrap;html=1;" vertex="1" parent="1">
          <mxGeometry x="80" y="80" width="160" height="80" as="geometry" />
        </mxCell>
        <mxCell id="jh_wpFelPdrl3bym8iCk-5" value="" style="edgeStyle=orthogonalEdgeStyle;rounded=0;orthogonalLoop=1;jettySize=auto;html=1;" edge="1" parent="1" source="jh_wpFelPdrl3bym8iCk-2" target="jh_wpFelPdrl3bym8iCk-4">
          <mxGeometry relative="1" as="geometry" />
        </mxCell>
        <mxCell id="jh_wpFelPdrl3bym8iCk-2" value="Adjust the direction of the machine&amp;nbsp;" style="whiteSpace=wrap;html=1;rounded=0;" vertex="1" parent="1">
          <mxGeometry x="334" y="80" width="160" height="80" as="geometry" />
        </mxCell>
        <mxCell id="jh_wpFelPdrl3bym8iCk-7" value="" style="edgeStyle=orthogonalEdgeStyle;rounded=0;orthogonalLoop=1;jettySize=auto;html=1;" edge="1" parent="1" source="jh_wpFelPdrl3bym8iCk-4" target="jh_wpFelPdrl3bym8iCk-6">
          <mxGeometry relative="1" as="geometry" />
        </mxCell>
        <mxCell id="jh_wpFelPdrl3bym8iCk-4" value="Start shooting the ball" style="whiteSpace=wrap;html=1;rounded=0;" vertex="1" parent="1">
          <mxGeometry x="600" y="80" width="160" height="80" as="geometry" />
        </mxCell>
        <mxCell id="jh_wpFelPdrl3bym8iCk-9" value="" style="edgeStyle=orthogonalEdgeStyle;rounded=0;orthogonalLoop=1;jettySize=auto;html=1;" edge="1" parent="1" source="jh_wpFelPdrl3bym8iCk-6" target="jh_wpFelPdrl3bym8iCk-8">
          <mxGeometry relative="1" as="geometry" />
        </mxCell>
        <mxCell id="jh_wpFelPdrl3bym8iCk-6" value="The machine captures all scored and missed shots" style="whiteSpace=wrap;html=1;rounded=0;" vertex="1" parent="1">
          <mxGeometry x="600" y="240" width="160" height="80" as="geometry" />
        </mxCell>
        <mxCell id="jh_wpFelPdrl3bym8iCk-11" value="" style="edgeStyle=orthogonalEdgeStyle;rounded=0;orthogonalLoop=1;jettySize=auto;html=1;" edge="1" parent="1" source="jh_wpFelPdrl3bym8iCk-8" target="jh_wpFelPdrl3bym8iCk-10">
          <mxGeometry relative="1" as="geometry" />
        </mxCell>
        <mxCell id="jh_wpFelPdrl3bym8iCk-8" value="The ball slides down on the return net system" style="whiteSpace=wrap;html=1;rounded=0;" vertex="1" parent="1">
          <mxGeometry x="334" y="240" width="160" height="80" as="geometry" />
        </mxCell>
        <mxCell id="jh_wpFelPdrl3bym8iCk-10" value="The ball gets inside the system, the machine is launched by automatically push the ball back to the shooter" style="whiteSpace=wrap;html=1;rounded=0;" vertex="1" parent="1">
          <mxGeometry x="80" y="240" width="160" height="80" as="geometry" />
        </mxCell>
      </root>
    </mxGraphModel>
  </diagram>
</mxfile>
